<mxfile host="app.diagrams.net" agent="Mozilla/5.0 (Macintosh; Intel Mac OS X 10_15_7) AppleWebKit/537.36 (KHTML, like Gecko) Chrome/131.0.0.0 Safari/537.36" version="24.8.3">
  <diagram name="Page-1" id="sNDbcBBe1wUxEJ88fvFe">
    <mxGraphModel dx="2316" dy="977" grid="1" gridSize="10" guides="1" tooltips="1" connect="1" arrows="1" fold="1" page="1" pageScale="1" pageWidth="850" pageHeight="1100" math="0" shadow="0">
      <root>
        <mxCell id="0" />
        <mxCell id="1" parent="0" />
        <mxCell id="i04l9D9Z45-EMmeL9zIn-114" value="" style="group" vertex="1" connectable="0" parent="1">
          <mxGeometry x="-390" width="317" height="160" as="geometry" />
        </mxCell>
        <mxCell id="i04l9D9Z45-EMmeL9zIn-42" value="" style="shape=table;startSize=0;container=1;collapsible=0;childLayout=tableLayout;" vertex="1" parent="i04l9D9Z45-EMmeL9zIn-114">
          <mxGeometry x="42" width="240" height="110" as="geometry" />
        </mxCell>
        <mxCell id="i04l9D9Z45-EMmeL9zIn-43" value="" style="shape=tableRow;horizontal=0;startSize=0;swimlaneHead=0;swimlaneBody=0;strokeColor=inherit;top=0;left=0;bottom=0;right=0;collapsible=0;dropTarget=0;fillColor=none;points=[[0,0.5],[1,0.5]];portConstraint=eastwest;" vertex="1" parent="i04l9D9Z45-EMmeL9zIn-42">
          <mxGeometry width="240" height="28" as="geometry" />
        </mxCell>
        <mxCell id="i04l9D9Z45-EMmeL9zIn-44" value="" style="shape=partialRectangle;html=1;whiteSpace=wrap;connectable=0;strokeColor=inherit;overflow=hidden;fillColor=none;top=0;left=0;bottom=0;right=0;pointerEvents=1;" vertex="1" parent="i04l9D9Z45-EMmeL9zIn-43">
          <mxGeometry width="60" height="28" as="geometry">
            <mxRectangle width="60" height="28" as="alternateBounds" />
          </mxGeometry>
        </mxCell>
        <mxCell id="i04l9D9Z45-EMmeL9zIn-45" value="" style="shape=partialRectangle;html=1;whiteSpace=wrap;connectable=0;strokeColor=inherit;overflow=hidden;fillColor=none;top=0;left=0;bottom=0;right=0;pointerEvents=1;" vertex="1" parent="i04l9D9Z45-EMmeL9zIn-43">
          <mxGeometry x="60" width="60" height="28" as="geometry">
            <mxRectangle width="60" height="28" as="alternateBounds" />
          </mxGeometry>
        </mxCell>
        <mxCell id="i04l9D9Z45-EMmeL9zIn-46" value="" style="shape=partialRectangle;html=1;whiteSpace=wrap;connectable=0;strokeColor=inherit;overflow=hidden;fillColor=none;top=0;left=0;bottom=0;right=0;pointerEvents=1;" vertex="1" parent="i04l9D9Z45-EMmeL9zIn-43">
          <mxGeometry x="120" width="60" height="28" as="geometry">
            <mxRectangle width="60" height="28" as="alternateBounds" />
          </mxGeometry>
        </mxCell>
        <mxCell id="i04l9D9Z45-EMmeL9zIn-47" value="" style="shape=partialRectangle;html=1;whiteSpace=wrap;connectable=0;strokeColor=inherit;overflow=hidden;fillColor=none;top=0;left=0;bottom=0;right=0;pointerEvents=1;" vertex="1" parent="i04l9D9Z45-EMmeL9zIn-43">
          <mxGeometry x="180" width="60" height="28" as="geometry">
            <mxRectangle width="60" height="28" as="alternateBounds" />
          </mxGeometry>
        </mxCell>
        <mxCell id="i04l9D9Z45-EMmeL9zIn-48" value="" style="shape=tableRow;horizontal=0;startSize=0;swimlaneHead=0;swimlaneBody=0;strokeColor=inherit;top=0;left=0;bottom=0;right=0;collapsible=0;dropTarget=0;fillColor=none;points=[[0,0.5],[1,0.5]];portConstraint=eastwest;" vertex="1" parent="i04l9D9Z45-EMmeL9zIn-42">
          <mxGeometry y="28" width="240" height="27" as="geometry" />
        </mxCell>
        <mxCell id="i04l9D9Z45-EMmeL9zIn-49" value="" style="shape=partialRectangle;html=1;whiteSpace=wrap;connectable=0;strokeColor=inherit;overflow=hidden;fillColor=none;top=0;left=0;bottom=0;right=0;pointerEvents=1;" vertex="1" parent="i04l9D9Z45-EMmeL9zIn-48">
          <mxGeometry width="60" height="27" as="geometry">
            <mxRectangle width="60" height="27" as="alternateBounds" />
          </mxGeometry>
        </mxCell>
        <mxCell id="i04l9D9Z45-EMmeL9zIn-50" value="" style="shape=partialRectangle;html=1;whiteSpace=wrap;connectable=0;strokeColor=inherit;overflow=hidden;fillColor=none;top=0;left=0;bottom=0;right=0;pointerEvents=1;" vertex="1" parent="i04l9D9Z45-EMmeL9zIn-48">
          <mxGeometry x="60" width="60" height="27" as="geometry">
            <mxRectangle width="60" height="27" as="alternateBounds" />
          </mxGeometry>
        </mxCell>
        <mxCell id="i04l9D9Z45-EMmeL9zIn-51" value="" style="shape=partialRectangle;html=1;whiteSpace=wrap;connectable=0;strokeColor=inherit;overflow=hidden;fillColor=none;top=0;left=0;bottom=0;right=0;pointerEvents=1;" vertex="1" parent="i04l9D9Z45-EMmeL9zIn-48">
          <mxGeometry x="120" width="60" height="27" as="geometry">
            <mxRectangle width="60" height="27" as="alternateBounds" />
          </mxGeometry>
        </mxCell>
        <mxCell id="i04l9D9Z45-EMmeL9zIn-52" value="" style="shape=partialRectangle;html=1;whiteSpace=wrap;connectable=0;strokeColor=inherit;overflow=hidden;fillColor=none;top=0;left=0;bottom=0;right=0;pointerEvents=1;" vertex="1" parent="i04l9D9Z45-EMmeL9zIn-48">
          <mxGeometry x="180" width="60" height="27" as="geometry">
            <mxRectangle width="60" height="27" as="alternateBounds" />
          </mxGeometry>
        </mxCell>
        <mxCell id="i04l9D9Z45-EMmeL9zIn-53" value="" style="shape=tableRow;horizontal=0;startSize=0;swimlaneHead=0;swimlaneBody=0;strokeColor=inherit;top=0;left=0;bottom=0;right=0;collapsible=0;dropTarget=0;fillColor=none;points=[[0,0.5],[1,0.5]];portConstraint=eastwest;" vertex="1" parent="i04l9D9Z45-EMmeL9zIn-42">
          <mxGeometry y="55" width="240" height="28" as="geometry" />
        </mxCell>
        <mxCell id="i04l9D9Z45-EMmeL9zIn-54" value="" style="shape=partialRectangle;html=1;whiteSpace=wrap;connectable=0;strokeColor=inherit;overflow=hidden;fillColor=none;top=0;left=0;bottom=0;right=0;pointerEvents=1;" vertex="1" parent="i04l9D9Z45-EMmeL9zIn-53">
          <mxGeometry width="60" height="28" as="geometry">
            <mxRectangle width="60" height="28" as="alternateBounds" />
          </mxGeometry>
        </mxCell>
        <mxCell id="i04l9D9Z45-EMmeL9zIn-55" value="" style="shape=partialRectangle;html=1;whiteSpace=wrap;connectable=0;strokeColor=inherit;overflow=hidden;fillColor=none;top=0;left=0;bottom=0;right=0;pointerEvents=1;" vertex="1" parent="i04l9D9Z45-EMmeL9zIn-53">
          <mxGeometry x="60" width="60" height="28" as="geometry">
            <mxRectangle width="60" height="28" as="alternateBounds" />
          </mxGeometry>
        </mxCell>
        <mxCell id="i04l9D9Z45-EMmeL9zIn-56" value="" style="shape=partialRectangle;html=1;whiteSpace=wrap;connectable=0;strokeColor=inherit;overflow=hidden;fillColor=none;top=0;left=0;bottom=0;right=0;pointerEvents=1;" vertex="1" parent="i04l9D9Z45-EMmeL9zIn-53">
          <mxGeometry x="120" width="60" height="28" as="geometry">
            <mxRectangle width="60" height="28" as="alternateBounds" />
          </mxGeometry>
        </mxCell>
        <mxCell id="i04l9D9Z45-EMmeL9zIn-57" value="" style="shape=partialRectangle;html=1;whiteSpace=wrap;connectable=0;strokeColor=inherit;overflow=hidden;fillColor=none;top=0;left=0;bottom=0;right=0;pointerEvents=1;" vertex="1" parent="i04l9D9Z45-EMmeL9zIn-53">
          <mxGeometry x="180" width="60" height="28" as="geometry">
            <mxRectangle width="60" height="28" as="alternateBounds" />
          </mxGeometry>
        </mxCell>
        <mxCell id="i04l9D9Z45-EMmeL9zIn-58" value="" style="shape=tableRow;horizontal=0;startSize=0;swimlaneHead=0;swimlaneBody=0;strokeColor=inherit;top=0;left=0;bottom=0;right=0;collapsible=0;dropTarget=0;fillColor=none;points=[[0,0.5],[1,0.5]];portConstraint=eastwest;" vertex="1" parent="i04l9D9Z45-EMmeL9zIn-42">
          <mxGeometry y="83" width="240" height="27" as="geometry" />
        </mxCell>
        <mxCell id="i04l9D9Z45-EMmeL9zIn-59" value="" style="shape=partialRectangle;html=1;whiteSpace=wrap;connectable=0;strokeColor=inherit;overflow=hidden;fillColor=none;top=0;left=0;bottom=0;right=0;pointerEvents=1;" vertex="1" parent="i04l9D9Z45-EMmeL9zIn-58">
          <mxGeometry width="60" height="27" as="geometry">
            <mxRectangle width="60" height="27" as="alternateBounds" />
          </mxGeometry>
        </mxCell>
        <mxCell id="i04l9D9Z45-EMmeL9zIn-60" value="" style="shape=partialRectangle;html=1;whiteSpace=wrap;connectable=0;strokeColor=inherit;overflow=hidden;fillColor=none;top=0;left=0;bottom=0;right=0;pointerEvents=1;" vertex="1" parent="i04l9D9Z45-EMmeL9zIn-58">
          <mxGeometry x="60" width="60" height="27" as="geometry">
            <mxRectangle width="60" height="27" as="alternateBounds" />
          </mxGeometry>
        </mxCell>
        <mxCell id="i04l9D9Z45-EMmeL9zIn-61" value="" style="shape=partialRectangle;html=1;whiteSpace=wrap;connectable=0;strokeColor=inherit;overflow=hidden;fillColor=none;top=0;left=0;bottom=0;right=0;pointerEvents=1;" vertex="1" parent="i04l9D9Z45-EMmeL9zIn-58">
          <mxGeometry x="120" width="60" height="27" as="geometry">
            <mxRectangle width="60" height="27" as="alternateBounds" />
          </mxGeometry>
        </mxCell>
        <mxCell id="i04l9D9Z45-EMmeL9zIn-62" value="" style="shape=partialRectangle;html=1;whiteSpace=wrap;connectable=0;strokeColor=inherit;overflow=hidden;fillColor=none;top=0;left=0;bottom=0;right=0;pointerEvents=1;" vertex="1" parent="i04l9D9Z45-EMmeL9zIn-58">
          <mxGeometry x="180" width="60" height="27" as="geometry">
            <mxRectangle width="60" height="27" as="alternateBounds" />
          </mxGeometry>
        </mxCell>
        <mxCell id="i04l9D9Z45-EMmeL9zIn-67" value="" style="endArrow=classic;startArrow=classic;html=1;rounded=0;entryX=1;entryY=0.75;entryDx=0;entryDy=0;exitX=1;exitY=0.25;exitDx=0;exitDy=0;" edge="1" parent="i04l9D9Z45-EMmeL9zIn-114" source="i04l9D9Z45-EMmeL9zIn-78" target="i04l9D9Z45-EMmeL9zIn-77">
          <mxGeometry width="50" height="50" relative="1" as="geometry">
            <mxPoint x="42" y="52" as="sourcePoint" />
            <mxPoint x="41" y="30" as="targetPoint" />
            <Array as="points">
              <mxPoint x="322" y="50" />
              <mxPoint x="322" y="30" />
            </Array>
          </mxGeometry>
        </mxCell>
        <mxCell id="i04l9D9Z45-EMmeL9zIn-77" value="" style="shape=ext;double=1;rounded=1;whiteSpace=wrap;html=1;" vertex="1" parent="i04l9D9Z45-EMmeL9zIn-114">
          <mxGeometry x="42" width="240" height="40" as="geometry" />
        </mxCell>
        <mxCell id="i04l9D9Z45-EMmeL9zIn-78" value="" style="shape=ext;double=1;rounded=1;whiteSpace=wrap;html=1;" vertex="1" parent="i04l9D9Z45-EMmeL9zIn-114">
          <mxGeometry x="42" y="40" width="240" height="40" as="geometry" />
        </mxCell>
        <mxCell id="i04l9D9Z45-EMmeL9zIn-79" value="" style="shape=ext;double=1;rounded=1;whiteSpace=wrap;html=1;" vertex="1" parent="i04l9D9Z45-EMmeL9zIn-114">
          <mxGeometry x="42" y="80" width="240" height="40" as="geometry" />
        </mxCell>
        <mxCell id="i04l9D9Z45-EMmeL9zIn-80" value="" style="shape=ext;double=1;rounded=1;whiteSpace=wrap;html=1;" vertex="1" parent="i04l9D9Z45-EMmeL9zIn-114">
          <mxGeometry x="42" y="120" width="240" height="40" as="geometry" />
        </mxCell>
        <mxCell id="i04l9D9Z45-EMmeL9zIn-152" value="" style="endArrow=classic;startArrow=classic;html=1;rounded=0;entryX=0.996;entryY=0.75;entryDx=0;entryDy=0;exitX=1;exitY=0.25;exitDx=0;exitDy=0;entryPerimeter=0;" edge="1" parent="i04l9D9Z45-EMmeL9zIn-114">
          <mxGeometry width="50" height="50" relative="1" as="geometry">
            <mxPoint x="283" y="90" as="sourcePoint" />
            <mxPoint x="282" y="70" as="targetPoint" />
            <Array as="points">
              <mxPoint x="323" y="90" />
              <mxPoint x="323" y="70" />
            </Array>
          </mxGeometry>
        </mxCell>
        <mxCell id="i04l9D9Z45-EMmeL9zIn-153" value="" style="endArrow=classic;startArrow=classic;html=1;rounded=0;entryX=0.996;entryY=0.75;entryDx=0;entryDy=0;exitX=1;exitY=0.25;exitDx=0;exitDy=0;entryPerimeter=0;" edge="1" parent="i04l9D9Z45-EMmeL9zIn-114">
          <mxGeometry width="50" height="50" relative="1" as="geometry">
            <mxPoint x="283" y="130" as="sourcePoint" />
            <mxPoint x="282" y="110" as="targetPoint" />
            <Array as="points">
              <mxPoint x="323" y="130" />
              <mxPoint x="323" y="110" />
            </Array>
          </mxGeometry>
        </mxCell>
        <mxCell id="i04l9D9Z45-EMmeL9zIn-69" value="" style="endArrow=classic;startArrow=classic;html=1;rounded=0;entryX=1;entryY=0.25;entryDx=0;entryDy=0;exitX=1;exitY=0.75;exitDx=0;exitDy=0;" edge="1" parent="i04l9D9Z45-EMmeL9zIn-114" source="i04l9D9Z45-EMmeL9zIn-80" target="i04l9D9Z45-EMmeL9zIn-77">
          <mxGeometry width="50" height="50" relative="1" as="geometry">
            <mxPoint x="14" y="202" as="sourcePoint" />
            <mxPoint x="13" y="180" as="targetPoint" />
            <Array as="points">
              <mxPoint x="332" y="150" />
              <mxPoint x="332" y="10" />
            </Array>
          </mxGeometry>
        </mxCell>
        <mxCell id="i04l9D9Z45-EMmeL9zIn-70" value="1" style="text;html=1;align=center;verticalAlign=middle;resizable=0;points=[];autosize=1;strokeColor=none;fillColor=none;" vertex="1" parent="i04l9D9Z45-EMmeL9zIn-114">
          <mxGeometry x="12" y="8" width="30" height="30" as="geometry" />
        </mxCell>
        <mxCell id="i04l9D9Z45-EMmeL9zIn-72" value="2" style="text;html=1;align=center;verticalAlign=middle;resizable=0;points=[];autosize=1;strokeColor=none;fillColor=none;" vertex="1" parent="i04l9D9Z45-EMmeL9zIn-114">
          <mxGeometry x="12" y="48" width="30" height="30" as="geometry" />
        </mxCell>
        <mxCell id="i04l9D9Z45-EMmeL9zIn-74" value="3" style="text;html=1;align=center;verticalAlign=middle;resizable=0;points=[];autosize=1;strokeColor=none;fillColor=none;" vertex="1" parent="i04l9D9Z45-EMmeL9zIn-114">
          <mxGeometry x="12" y="90" width="30" height="30" as="geometry" />
        </mxCell>
        <mxCell id="i04l9D9Z45-EMmeL9zIn-73" value="4" style="text;html=1;align=center;verticalAlign=middle;resizable=0;points=[];autosize=1;strokeColor=none;fillColor=none;" vertex="1" parent="i04l9D9Z45-EMmeL9zIn-114">
          <mxGeometry x="12" y="130" width="30" height="30" as="geometry" />
        </mxCell>
        <mxCell id="i04l9D9Z45-EMmeL9zIn-150" value="Shared grid" style="text;html=1;align=center;verticalAlign=middle;resizable=0;points=[];autosize=1;strokeColor=none;fillColor=none;" vertex="1" parent="1">
          <mxGeometry x="205" y="330" width="90" height="30" as="geometry" />
        </mxCell>
        <mxCell id="i04l9D9Z45-EMmeL9zIn-179" value="state_(i)_1" style="shape=ext;double=1;rounded=1;whiteSpace=wrap;html=1;" vertex="1" parent="1">
          <mxGeometry x="130" y="360" width="240" height="40" as="geometry" />
        </mxCell>
        <mxCell id="i04l9D9Z45-EMmeL9zIn-180" value="state_(i)_2" style="shape=ext;double=1;rounded=1;whiteSpace=wrap;html=1;" vertex="1" parent="1">
          <mxGeometry x="130" y="400" width="240" height="40" as="geometry" />
        </mxCell>
        <mxCell id="i04l9D9Z45-EMmeL9zIn-181" value="state_(i)_3" style="shape=ext;double=1;rounded=1;whiteSpace=wrap;html=1;" vertex="1" parent="1">
          <mxGeometry x="130" y="440" width="240" height="40" as="geometry" />
        </mxCell>
        <mxCell id="i04l9D9Z45-EMmeL9zIn-182" value="state_(i)_4" style="shape=ext;double=1;rounded=1;whiteSpace=wrap;html=1;" vertex="1" parent="1">
          <mxGeometry x="130" y="480" width="240" height="40" as="geometry" />
        </mxCell>
        <mxCell id="i04l9D9Z45-EMmeL9zIn-186" value="1" style="text;html=1;align=center;verticalAlign=middle;resizable=0;points=[];autosize=1;strokeColor=none;fillColor=none;" vertex="1" parent="1">
          <mxGeometry x="100" y="368" width="30" height="30" as="geometry" />
        </mxCell>
        <mxCell id="i04l9D9Z45-EMmeL9zIn-187" value="2" style="text;html=1;align=center;verticalAlign=middle;resizable=0;points=[];autosize=1;strokeColor=none;fillColor=none;" vertex="1" parent="1">
          <mxGeometry x="100" y="408" width="30" height="30" as="geometry" />
        </mxCell>
        <mxCell id="i04l9D9Z45-EMmeL9zIn-188" value="3" style="text;html=1;align=center;verticalAlign=middle;resizable=0;points=[];autosize=1;strokeColor=none;fillColor=none;" vertex="1" parent="1">
          <mxGeometry x="100" y="450" width="30" height="30" as="geometry" />
        </mxCell>
        <mxCell id="i04l9D9Z45-EMmeL9zIn-189" value="4" style="text;html=1;align=center;verticalAlign=middle;resizable=0;points=[];autosize=1;strokeColor=none;fillColor=none;" vertex="1" parent="1">
          <mxGeometry x="100" y="490" width="30" height="30" as="geometry" />
        </mxCell>
        <mxCell id="i04l9D9Z45-EMmeL9zIn-216" value="state_(i+1)_1" style="shape=ext;double=1;rounded=1;whiteSpace=wrap;html=1;" vertex="1" parent="1">
          <mxGeometry x="120" y="620" width="240" height="40" as="geometry" />
        </mxCell>
        <mxCell id="i04l9D9Z45-EMmeL9zIn-217" value="state_(i+1)_2" style="shape=ext;double=1;rounded=1;whiteSpace=wrap;html=1;" vertex="1" parent="1">
          <mxGeometry x="120" y="680" width="240" height="40" as="geometry" />
        </mxCell>
        <mxCell id="i04l9D9Z45-EMmeL9zIn-218" value="state_(i+1)_3" style="shape=ext;double=1;rounded=1;whiteSpace=wrap;html=1;" vertex="1" parent="1">
          <mxGeometry x="120" y="740" width="240" height="40" as="geometry" />
        </mxCell>
        <mxCell id="i04l9D9Z45-EMmeL9zIn-219" value="state_(i+1)_4" style="shape=ext;double=1;rounded=1;whiteSpace=wrap;html=1;" vertex="1" parent="1">
          <mxGeometry x="120" y="800" width="240" height="40" as="geometry" />
        </mxCell>
        <mxCell id="i04l9D9Z45-EMmeL9zIn-220" value="1" style="text;html=1;align=center;verticalAlign=middle;resizable=0;points=[];autosize=1;strokeColor=none;fillColor=none;" vertex="1" parent="1">
          <mxGeometry x="90" y="628" width="30" height="30" as="geometry" />
        </mxCell>
        <mxCell id="i04l9D9Z45-EMmeL9zIn-221" value="2" style="text;html=1;align=center;verticalAlign=middle;resizable=0;points=[];autosize=1;strokeColor=none;fillColor=none;" vertex="1" parent="1">
          <mxGeometry x="90" y="690" width="30" height="30" as="geometry" />
        </mxCell>
        <mxCell id="i04l9D9Z45-EMmeL9zIn-222" value="3" style="text;html=1;align=center;verticalAlign=middle;resizable=0;points=[];autosize=1;strokeColor=none;fillColor=none;" vertex="1" parent="1">
          <mxGeometry x="90" y="750" width="30" height="30" as="geometry" />
        </mxCell>
        <mxCell id="i04l9D9Z45-EMmeL9zIn-223" value="4" style="text;html=1;align=center;verticalAlign=middle;resizable=0;points=[];autosize=1;strokeColor=none;fillColor=none;" vertex="1" parent="1">
          <mxGeometry x="90" y="810" width="30" height="30" as="geometry" />
        </mxCell>
        <mxCell id="i04l9D9Z45-EMmeL9zIn-253" value="Local storage" style="text;html=1;align=center;verticalAlign=middle;resizable=0;points=[];autosize=1;strokeColor=none;fillColor=none;" vertex="1" parent="1">
          <mxGeometry x="190" y="590" width="100" height="30" as="geometry" />
        </mxCell>
        <mxCell id="i04l9D9Z45-EMmeL9zIn-255" value="" style="endArrow=classic;html=1;rounded=0;" edge="1" parent="1">
          <mxGeometry width="50" height="50" relative="1" as="geometry">
            <mxPoint x="240" y="550" as="sourcePoint" />
            <mxPoint x="240" y="580" as="targetPoint" />
            <Array as="points">
              <mxPoint x="240" y="530" />
              <mxPoint x="240" y="550" />
              <mxPoint x="240" y="560" />
            </Array>
          </mxGeometry>
        </mxCell>
        <mxCell id="i04l9D9Z45-EMmeL9zIn-260" value="" style="endArrow=classic;html=1;rounded=0;" edge="1" parent="1">
          <mxGeometry width="50" height="50" relative="1" as="geometry">
            <mxPoint x="240" y="1120" as="sourcePoint" />
            <mxPoint x="240" y="319" as="targetPoint" />
            <Array as="points">
              <mxPoint x="240" y="1190" />
              <mxPoint x="440" y="1190" />
              <mxPoint x="440" y="280" />
              <mxPoint x="240" y="280" />
            </Array>
          </mxGeometry>
        </mxCell>
        <mxCell id="i04l9D9Z45-EMmeL9zIn-261" value="i = i + 1" style="edgeLabel;html=1;align=center;verticalAlign=middle;resizable=0;points=[];" vertex="1" connectable="0" parent="i04l9D9Z45-EMmeL9zIn-260">
          <mxGeometry x="-0.0389" y="1" relative="1" as="geometry">
            <mxPoint as="offset" />
          </mxGeometry>
        </mxCell>
        <mxCell id="i04l9D9Z45-EMmeL9zIn-296" value="synchronise" style="edgeLabel;html=1;align=center;verticalAlign=middle;resizable=0;points=[];" vertex="1" connectable="0" parent="i04l9D9Z45-EMmeL9zIn-260">
          <mxGeometry x="-0.9565" y="3" relative="1" as="geometry">
            <mxPoint y="-1" as="offset" />
          </mxGeometry>
        </mxCell>
        <mxCell id="i04l9D9Z45-EMmeL9zIn-285" value="state_(i+1)_1" style="shape=ext;double=1;rounded=1;whiteSpace=wrap;html=1;" vertex="1" parent="1">
          <mxGeometry x="120" y="950" width="240" height="40" as="geometry" />
        </mxCell>
        <mxCell id="i04l9D9Z45-EMmeL9zIn-286" value="state_(i+1)_2" style="shape=ext;double=1;rounded=1;whiteSpace=wrap;html=1;" vertex="1" parent="1">
          <mxGeometry x="120" y="990" width="240" height="40" as="geometry" />
        </mxCell>
        <mxCell id="i04l9D9Z45-EMmeL9zIn-287" value="state_(i+1)_3" style="shape=ext;double=1;rounded=1;whiteSpace=wrap;html=1;" vertex="1" parent="1">
          <mxGeometry x="120" y="1030" width="240" height="40" as="geometry" />
        </mxCell>
        <mxCell id="i04l9D9Z45-EMmeL9zIn-288" value="state_(i+1)_4" style="shape=ext;double=1;rounded=1;whiteSpace=wrap;html=1;" vertex="1" parent="1">
          <mxGeometry x="120" y="1070" width="240" height="40" as="geometry" />
        </mxCell>
        <mxCell id="i04l9D9Z45-EMmeL9zIn-289" value="1" style="text;html=1;align=center;verticalAlign=middle;resizable=0;points=[];autosize=1;strokeColor=none;fillColor=none;" vertex="1" parent="1">
          <mxGeometry x="90" y="958" width="30" height="30" as="geometry" />
        </mxCell>
        <mxCell id="i04l9D9Z45-EMmeL9zIn-290" value="2" style="text;html=1;align=center;verticalAlign=middle;resizable=0;points=[];autosize=1;strokeColor=none;fillColor=none;" vertex="1" parent="1">
          <mxGeometry x="90" y="998" width="30" height="30" as="geometry" />
        </mxCell>
        <mxCell id="i04l9D9Z45-EMmeL9zIn-291" value="3" style="text;html=1;align=center;verticalAlign=middle;resizable=0;points=[];autosize=1;strokeColor=none;fillColor=none;" vertex="1" parent="1">
          <mxGeometry x="90" y="1040" width="30" height="30" as="geometry" />
        </mxCell>
        <mxCell id="i04l9D9Z45-EMmeL9zIn-292" value="4" style="text;html=1;align=center;verticalAlign=middle;resizable=0;points=[];autosize=1;strokeColor=none;fillColor=none;" vertex="1" parent="1">
          <mxGeometry x="90" y="1080" width="30" height="30" as="geometry" />
        </mxCell>
        <mxCell id="i04l9D9Z45-EMmeL9zIn-293" value="" style="edgeStyle=orthogonalEdgeStyle;rounded=0;orthogonalLoop=1;jettySize=auto;html=1;" edge="1" parent="1">
          <mxGeometry relative="1" as="geometry">
            <mxPoint x="240" y="860" as="sourcePoint" />
            <mxPoint x="240" y="910" as="targetPoint" />
          </mxGeometry>
        </mxCell>
        <mxCell id="i04l9D9Z45-EMmeL9zIn-294" value="synchronise" style="edgeLabel;html=1;align=center;verticalAlign=middle;resizable=0;points=[];" vertex="1" connectable="0" parent="i04l9D9Z45-EMmeL9zIn-293">
          <mxGeometry x="-0.2" y="2" relative="1" as="geometry">
            <mxPoint as="offset" />
          </mxGeometry>
        </mxCell>
        <mxCell id="i04l9D9Z45-EMmeL9zIn-295" value="Shared grid" style="text;html=1;align=center;verticalAlign=middle;resizable=0;points=[];autosize=1;strokeColor=none;fillColor=none;" vertex="1" parent="1">
          <mxGeometry x="195" y="920" width="90" height="30" as="geometry" />
        </mxCell>
        <mxCell id="i04l9D9Z45-EMmeL9zIn-297" value="" style="endArrow=classic;html=1;rounded=0;exitX=0.909;exitY=0.521;exitDx=0;exitDy=0;exitPerimeter=0;" edge="1" parent="1" source="i04l9D9Z45-EMmeL9zIn-298">
          <mxGeometry width="50" height="50" relative="1" as="geometry">
            <mxPoint x="170" y="290" as="sourcePoint" />
            <mxPoint x="220" y="320" as="targetPoint" />
          </mxGeometry>
        </mxCell>
        <mxCell id="i04l9D9Z45-EMmeL9zIn-298" value="Start&lt;div&gt;i = 0&lt;/div&gt;" style="text;html=1;align=center;verticalAlign=middle;resizable=0;points=[];autosize=1;strokeColor=none;fillColor=none;" vertex="1" parent="1">
          <mxGeometry x="120" y="270" width="50" height="40" as="geometry" />
        </mxCell>
      </root>
    </mxGraphModel>
  </diagram>
</mxfile>
